<svg xmlns="http://www.w3.org/2000/svg" viewBox="0 0 1600 900" preserveAspectRatio="xMidYMid slice"><defs>
<linearGradient id="sky" x1="0%" y1="0%" x2="100%" y2="100%"><stop offset="0%" stop-color="#07061a"/><stop offset="55%" stop-color="#141033"/><stop offset="100%" stop-color="#1b1645"/></linearGradient>
<radialGradient id="sun" cx="50%" cy="50%" r="50%"><stop offset="0%" stop-color="#00f5ff" stop-opacity="0.5"/><stop offset="100%" stop-color="#00f5ff" stop-opacity="0"/></radialGradient>
<filter id="blur" x="-50%" y="-50%" width="200%" height="200%"><feGaussianBlur stdDeviation="30"/></filter>
</defs>
<rect width="1600" height="900" fill="url(#sky)"/>
<circle cx="1180" cy="260" r="220" fill="url(#sun)">
  <animate attributeName="opacity" values="0.7;1;0.7" dur="6s" repeatCount="indefinite"/>
</circle>
<g filter="url(#blur)">
  <rect x="0" y="620" width="1600" height="280" fill="#00f5ff" opacity="0.10">
    <animate attributeName="opacity" values="0.06;0.14;0.06" dur="5s" repeatCount="indefinite"/>
  </rect>
</g>
<g fill="none" stroke="#00f5ff" opacity="0.12">
<path d="M0 700 H1600"/><path d="M0 640 H1600" stroke-width="0.5"/>
</g>
<g fill="#101030" stroke="#00f5ff" stroke-opacity="0.5" stroke-width="1">
<rect x="0" y="640" width="120" height="180"/><rect x="40" y="570" width="90" height="250"/><rect x="150" y="610" width="110" height="210"/><rect x="300" y="660" width="150" height="160"/><rect x="490" y="590" width="100" height="230"/><rect x="620" y="640" width="130" height="180"/><rect x="790" y="580" width="90" height="240"/><rect x="910" y="650" width="140" height="170"/><rect x="1090" y="620" width="110" height="200"/><rect x="1230" y="590" width="90" height="230"/><rect x="1350" y="650" width="250" height="170"/>
</g>
<g fill="#00f5ff">
<rect x="55" y="585" width="6" height="6"><animate attributeName="opacity" values="0.8;0.2;0.8" dur="2.2s" begin="0s" repeatCount="indefinite"/></rect>
<rect x="180" y="625" width="5" height="5"><animate attributeName="opacity" values="0.8;0.2;0.8" dur="3s" begin="0.5s" repeatCount="indefinite"/></rect>
<rect x="230" y="560" width="6" height="6"><animate attributeName="opacity" values="0.8;0.2;0.8" dur="2.6s" begin="1s" repeatCount="indefinite"/></rect>
<rect x="340" y="675" width="6" height="6"><animate attributeName="opacity" values="0.8;0.2;0.8" dur="3.4s" begin="0.3s" repeatCount="indefinite"/></rect>
<rect x="520" y="605" width="6" height="6"><animate attributeName="opacity" values="0.8;0.2;0.8" dur="2.8s" begin="1.6s" repeatCount="indefinite"/></rect>
<rect x="650" y="655" width="5" height="5"><animate attributeName="opacity" values="0.8;0.2;0.8" dur="3.1s" begin="0.8s" repeatCount="indefinite"/></rect>
<rect x="820" y="595" width="6" height="6"><animate attributeName="opacity" values="0.8;0.2;0.8" dur="2.4s" begin="0.2s" repeatCount="indefinite"/></rect>
<rect x="950" y="665" width="6" height="6"><animate attributeName="opacity" values="0.8;0.2;0.8" dur="3.6s" begin="1.2s" repeatCount="indefinite"/></rect>
<rect x="1120" y="635" width="6" height="6"><animate attributeName="opacity" values="0.8;0.2;0.8" dur="2.9s" begin="0.6s" repeatCount="indefinite"/></rect>
<rect x="1260" y="605" width="6" height="6"><animate attributeName="opacity" values="0.8;0.2;0.8" dur="3.2s" begin="1.4s" repeatCount="indefinite"/></rect>
<rect x="1380" y="665" width="6" height="6"><animate attributeName="opacity" values="0.8;0.2;0.8" dur="2.5s" begin="0.9s" repeatCount="indefinite"/></rect>
</g>
<g fill="#ffffff">
<circle cx="140" cy="140" r="1.5"><animate attributeName="opacity" values="0.8;0.2;0.8" dur="3s" begin="0s" repeatCount="indefinite"/></circle>
<circle cx="320" cy="90" r="1"><animate attributeName="opacity" values="0.6;0.1;0.6" dur="4s" begin="1s" repeatCount="indefinite"/></circle>
<circle cx="520" cy="180" r="1.3"><animate attributeName="opacity" values="0.7;0.15;0.7" dur="3.5s" begin="0.5s" repeatCount="indefinite"/></circle>
<circle cx="700" cy="110" r="1"><animate attributeName="opacity" values="0.5;0.1;0.5" dur="4.5s" begin="2s" repeatCount="indefinite"/></circle>
<circle cx="880" cy="160" r="1.5"><animate attributeName="opacity" values="0.8;0.2;0.8" dur="2.8s" begin="0.7s" repeatCount="indefinite"/></circle>
<circle cx="1030" cy="80" r="1"><animate attributeName="opacity" values="0.6;0.1;0.6" dur="3.8s" begin="1.3s" repeatCount="indefinite"/></circle>
<circle cx="1210" cy="140" r="1.2"><animate attributeName="opacity" values="0.7;0.15;0.7" dur="4.2s" begin="0.4s" repeatCount="indefinite"/></circle>
<circle cx="1420" cy="100" r="1"><animate attributeName="opacity" values="0.5;0.1;0.5" dur="5s" begin="1.8s" repeatCount="indefinite"/></circle>
<circle cx="60" cy="300" r="1"><animate attributeName="opacity" values="0.5;0.1;0.5" dur="4.6s" begin="2.5s" repeatCount="indefinite"/></circle>
<circle cx="980" cy="300" r="1.2"><animate attributeName="opacity" values="0.6;0.1;0.6" dur="3.7s" begin="0.9s" repeatCount="indefinite"/></circle>
</g>
</svg>
